<svg width="535" height="286" viewBox="0 0 535 286" fill="none" xmlns="http://www.w3.org/2000/svg">
<path d="M262.711 0.184296C237.339 0.184678 213.007 10.2636 195.067 28.204C177.127 46.1443 167.048 70.4766 167.047 95.848C167.069 99.3871 167.286 102.922 167.699 106.437C131.62 112.916 104.552 142.056 104.552 177.239C104.552 217.21 139.489 249.389 182.886 249.389H293.926H300.002H462.401C502.373 249.389 534.552 219.478 534.552 182.324C534.552 145.403 502.769 115.65 463.146 115.279C460.61 95.2716 450.864 76.8764 435.734 63.5424C420.604 50.2084 401.129 42.8513 380.962 42.8506C369.182 42.8681 357.541 45.3979 346.815 50.271C338.606 35.1222 326.458 22.4717 311.655 13.6556C296.851 4.83951 279.941 0.185198 262.711 0.184296Z" fill="#86A3BF"/>
<path d="M158.711 36.1843C133.339 36.1847 109.007 46.2637 91.0669 64.204C73.1265 82.1444 63.0476 106.477 63.0472 131.848C63.0686 135.387 63.2863 138.922 63.6994 142.437C27.6198 148.916 0.55162 178.056 0.55162 213.239C0.55162 253.21 35.4889 285.389 78.8864 285.389H189.926H196.002H358.401C398.372 285.389 430.552 255.478 430.552 218.324C430.552 181.403 398.769 151.65 359.146 151.279C356.61 131.272 346.864 112.876 331.734 99.5424C316.604 86.2084 297.129 78.8513 276.962 78.8506C265.182 78.8681 253.541 81.3979 242.815 86.271C234.606 71.1222 222.458 58.4717 207.655 49.6556C192.851 40.8395 175.941 36.1852 158.711 36.1843Z" fill="#C6E0F7"/>
</svg>
